{
    "asset" : {
        "generator" : "Khronos glTF Blender I/O v3.3.27",
        "version" : "2.0"
    },
    "extensionsUsed" : [
        "KHR_materials_specular",
        "KHR_materials_ior"
    ],
    "scene" : 0,
    "scenes" : [
        {
            "name" : "Scene",
            "nodes" : [
                0,
                1,
                2,
                3,
                4,
                5,
                6
            ]
        }
    ],
    "nodes" : [
        {
            "mesh" : 0,
            "name" : "Plano.001",
            "rotation" : [
                0,
                0.7071068286895752,
                0,
                0.7071068286895752
            ],
            "translation" : [
                -0.038279175758361816,
                0.06996212154626846,
                0.2592467665672302
            ]
        },
        {
            "mesh" : 1,
            "name" : "Plano.002",
            "rotation" : [
                0,
                0.7071068286895752,
                0,
                0.7071068286895752
            ],
            "translation" : [
                -0.038279175758361816,
                0.06996222585439682,
                0.2592467665672302
            ]
        },
        {
            "mesh" : 2,
            "name" : "Plano.003",
            "rotation" : [
                0,
                0.7071068286895752,
                0,
                0.7071068286895752
            ],
            "translation" : [
                -0.038279175758361816,
                0.0696558728814125,
                -0.2663308382034302
            ]
        },
        {
            "mesh" : 3,
            "name" : "Texto",
            "rotation" : [
                0.5000000596046448,
                0.5000000596046448,
                -0.5,
                0.5
            ],
            "translation" : [
                0.2894933223724365,
                -0.13685789704322815,
                0.007742881774902344
            ]
        },
        {
            "mesh" : 4,
            "name" : "Texto.001",
            "rotation" : [
                0.5000000596046448,
                0.5000000596046448,
                -0.5,
                0.5
            ],
            "translation" : [
                0.09434527158737183,
                -0.1368580013513565,
                0.6845589280128479
            ]
        },
        {
            "mesh" : 5,
            "name" : "Texto.002",
            "rotation" : [
                0.5000000596046448,
                0.5000000596046448,
                -0.5,
                0.5
            ],
            "translation" : [
                0.24261820316314697,
                -0.08466552942991257,
                -0.5125675201416016
            ]
        },
        {
            "mesh" : 6,
            "name" : "TQ_ARD-node",
            "rotation" : [
                0,
                1,
                0,
                7.549790126404332e-08
            ],
            "translation" : [
                -8.046627044677734e-05,
                -0.09176219999790192,
                -0.003230452537536621
            ]
        }
    ],
    "materials" : [
        {
            "doubleSided" : true,
            "name" : "Material.001",
            "pbrMetallicRoughness" : {
                "baseColorFactor" : [
                    0.4902293384075165,
                    0.021092573180794716,
                    0,
                    1
                ],
                "metallicFactor" : 0
            }
        },
        {
            "doubleSided" : true,
            "extensions" : {
                "KHR_materials_specular" : {
                    "specularColorFactor" : [
                        0,
                        0,
                        0
                    ]
                },
                "KHR_materials_ior" : {
                    "ior" : 0
                }
            },
            "name" : "TQ_ARD_front",
            "pbrMetallicRoughness" : {
                "baseColorTexture" : {
                    "index" : 0
                },
                "metallicFactor" : 0,
                "roughnessFactor" : 0.5
            }
        },
        {
            "doubleSided" : true,
            "extensions" : {
                "KHR_materials_specular" : {
                    "specularColorFactor" : [
                        0,
                        0,
                        0
                    ]
                },
                "KHR_materials_ior" : {
                    "ior" : 0
                }
            },
            "name" : "TQ_ARD_back",
            "pbrMetallicRoughness" : {
                "baseColorFactor" : [
                    0.996078372001648,
                    0.9019607901573181,
                    0.6627451181411743,
                    1
                ],
                "metallicFactor" : 0,
                "roughnessFactor" : 0.5
            }
        },
        {
            "doubleSided" : true,
            "extensions" : {
                "KHR_materials_specular" : {
                    "specularColorFactor" : [
                        0,
                        0,
                        0
                    ]
                },
                "KHR_materials_ior" : {
                    "ior" : 0
                }
            },
            "name" : "TQ_ARD_edge",
            "pbrMetallicRoughness" : {
                "baseColorTexture" : {
                    "index" : 1
                },
                "metallicFactor" : 0,
                "roughnessFactor" : 0.5
            }
        }
    ],
    "meshes" : [
        {
            "name" : "Plano",
            "primitives" : [
                {
                    "attributes" : {
                        "POSITION" : 0,
                        "NORMAL" : 1,
                        "TEXCOORD_0" : 2
                    },
                    "indices" : 3,
                    "material" : 0
                }
            ]
        },
        {
            "name" : "Plano.001",
            "primitives" : [
                {
                    "attributes" : {
                        "POSITION" : 4,
                        "NORMAL" : 5,
                        "TEXCOORD_0" : 6
                    },
                    "indices" : 7,
                    "material" : 0
                }
            ]
        },
        {
            "name" : "Plano.002",
            "primitives" : [
                {
                    "attributes" : {
                        "POSITION" : 8,
                        "NORMAL" : 9,
                        "TEXCOORD_0" : 10
                    },
                    "indices" : 11,
                    "material" : 0
                }
            ]
        },
        {
            "name" : "Texto",
            "primitives" : [
                {
                    "attributes" : {
                        "POSITION" : 12,
                        "NORMAL" : 13,
                        "TEXCOORD_0" : 14
                    },
                    "indices" : 15,
                    "material" : 0
                }
            ]
        },
        {
            "name" : "Texto.001",
            "primitives" : [
                {
                    "attributes" : {
                        "POSITION" : 16,
                        "NORMAL" : 17,
                        "TEXCOORD_0" : 18
                    },
                    "indices" : 19,
                    "material" : 0
                }
            ]
        },
        {
            "name" : "Texto.002",
            "primitives" : [
                {
                    "attributes" : {
                        "POSITION" : 20,
                        "NORMAL" : 21,
                        "TEXCOORD_0" : 22
                    },
                    "indices" : 23,
                    "material" : 0
                }
            ]
        },
        {
            "name" : "TQ_ARD-geom",
            "primitives" : [
                {
                    "attributes" : {
                        "POSITION" : 24,
                        "NORMAL" : 25,
                        "TEXCOORD_0" : 26
                    },
                    "indices" : 27,
                    "material" : 1
                },
                {
                    "attributes" : {
                        "POSITION" : 28,
                        "NORMAL" : 29,
                        "TEXCOORD_0" : 30
                    },
                    "indices" : 31,
                    "material" : 2
                },
                {
                    "attributes" : {
                        "POSITION" : 32,
                        "NORMAL" : 33,
                        "TEXCOORD_0" : 34
                    },
                    "indices" : 35,
                    "material" : 3
                }
            ]
        }
    ],
    "textures" : [
        {
            "sampler" : 0,
            "source" : 0
        },
        {
            "sampler" : 0,
            "source" : 1
        }
    ],
    "images" : [
        {
            "bufferView" : 28,
            "mimeType" : "image/jpeg",
            "name" : "1_Mesa de trabajo 1"
        },
        {
            "bufferView" : 37,
            "mimeType" : "image/png",
            "name" : "TQ_ARD-I1"
        }
    ],
    "accessors" : [
        {
            "bufferView" : 0,
            "componentType" : 5126,
            "count" : 144,
            "max" : [
                0.7561743259429932,
                -0.2044406235218048,
                0.2795535624027252
            ],
            "min" : [
                -0.23161306977272034,
                -0.2073255479335785,
                0.21309427917003632
            ],
            "type" : "VEC3"
        },
        {
            "bufferView" : 1,
            "componentType" : 5126,
            "count" : 144,
            "type" : "VEC3"
        },
        {
            "bufferView" : 2,
            "componentType" : 5126,
            "count" : 144,
            "type" : "VEC2"
        },
        {
            "bufferView" : 3,
            "componentType" : 5123,
            "count" : 216,
            "type" : "SCALAR"
        },
        {
            "bufferView" : 4,
            "componentType" : 5126,
            "count" : 144,
            "max" : [
                -0.2508041262626648,
                -0.2044406235218048,
                0.1998712569475174
            ],
            "min" : [
                -0.3172633945941925,
                -0.2073255479335785,
                -0.1930876225233078
            ],
            "type" : "VEC3"
        },
        {
            "bufferView" : 5,
            "componentType" : 5126,
            "count" : 144,
            "type" : "VEC3"
        },
        {
            "bufferView" : 6,
            "componentType" : 5126,
            "count" : 144,
            "type" : "VEC2"
        },
        {
            "bufferView" : 7,
            "componentType" : 5123,
            "count" : 216,
            "type" : "SCALAR"
        },
        {
            "bufferView" : 8,
            "componentType" : 5126,
            "count" : 144,
            "max" : [
                0.23353968560695648,
                -0.10981876403093338,
                0.2795535624027252
            ],
            "min" : [
                0.2306547313928604,
                -0.20701952278614044,
                0.2130943238735199
            ],
            "type" : "VEC3"
        },
        {
            "bufferView" : 9,
            "componentType" : 5126,
            "count" : 144,
            "type" : "VEC3"
        },
        {
            "bufferView" : 10,
            "componentType" : 5126,
            "count" : 144,
            "type" : "VEC2"
        },
        {
            "bufferView" : 11,
            "componentType" : 5123,
            "count" : 216,
            "type" : "SCALAR"
        },
        {
            "bufferView" : 12,
            "componentType" : 5126,
            "count" : 2410,
            "max" : [
                0.08257200568914413,
                0.0010000000474974513,
                0.0005055429064668715
            ],
            "min" : [
                0.002022171625867486,
                -0.0010000000474974513,
                -0.03881446272134781
            ],
            "type" : "VEC3"
        },
        {
            "bufferView" : 13,
            "componentType" : 5126,
            "count" : 2410,
            "type" : "VEC3"
        },
        {
            "bufferView" : 14,
            "componentType" : 5126,
            "count" : 2410,
            "type" : "VEC2"
        },
        {
            "bufferView" : 15,
            "componentType" : 5123,
            "count" : 4344,
            "type" : "SCALAR"
        },
        {
            "bufferView" : 16,
            "componentType" : 5126,
            "count" : 3018,
            "max" : [
                0.0822911486029625,
                0.0010000000474974513,
                0.0005055429064668715
            ],
            "min" : [
                0.003594971727579832,
                -0.0010000000474974513,
                -0.03881446272134781
            ],
            "type" : "VEC3"
        },
        {
            "bufferView" : 17,
            "componentType" : 5126,
            "count" : 3018,
            "type" : "VEC3"
        },
        {
            "bufferView" : 18,
            "componentType" : 5126,
            "count" : 3018,
            "type" : "VEC2"
        },
        {
            "bufferView" : 19,
            "componentType" : 5123,
            "count" : 5520,
            "type" : "SCALAR"
        },
        {
            "bufferView" : 20,
            "componentType" : 5126,
            "count" : 1382,
            "max" : [
                0.052688803523778915,
                0.0010000000474974513,
                0.0005055429064668715
            ],
            "min" : [
                0.002022171625867486,
                -0.0010000000474974513,
                -0.03881446272134781
            ],
            "type" : "VEC3"
        },
        {
            "bufferView" : 21,
            "componentType" : 5126,
            "count" : 1382,
            "type" : "VEC3"
        },
        {
            "bufferView" : 22,
            "componentType" : 5126,
            "count" : 1382,
            "type" : "VEC2"
        },
        {
            "bufferView" : 23,
            "componentType" : 5123,
            "count" : 2520,
            "type" : "SCALAR"
        },
        {
            "bufferView" : 24,
            "componentType" : 5126,
            "count" : 1356,
            "max" : [
                0.23397186398506165,
                0.05840218439698219,
                0.49724477529525757
            ],
            "min" : [
                -0.15930843353271484,
                -0.039772581309080124,
                -0.4959305226802826
            ],
            "type" : "VEC3"
        },
        {
            "bufferView" : 25,
            "componentType" : 5126,
            "count" : 1356,
            "type" : "VEC3"
        },
        {
            "bufferView" : 26,
            "componentType" : 5126,
            "count" : 1356,
            "type" : "VEC2"
        },
        {
            "bufferView" : 27,
            "componentType" : 5123,
            "count" : 2367,
            "type" : "SCALAR"
        },
        {
            "bufferView" : 29,
            "componentType" : 5126,
            "count" : 1178,
            "max" : [
                0.23388369381427765,
                0.056796420365571976,
                0.49565720558166504
            ],
            "min" : [
                -0.15725600719451904,
                -0.039688073098659515,
                -0.4943430721759796
            ],
            "type" : "VEC3"
        },
        {
            "bufferView" : 30,
            "componentType" : 5126,
            "count" : 1178,
            "type" : "VEC3"
        },
        {
            "bufferView" : 31,
            "componentType" : 5126,
            "count" : 1178,
            "type" : "VEC2"
        },
        {
            "bufferView" : 32,
            "componentType" : 5123,
            "count" : 2367,
            "type" : "SCALAR"
        },
        {
            "bufferView" : 33,
            "componentType" : 5126,
            "count" : 2255,
            "max" : [
                0.23397183418273926,
                0.05840218439698219,
                0.49724477529525757
            ],
            "min" : [
                -0.15930843353271484,
                -0.039772581309080124,
                -0.4959305226802826
            ],
            "type" : "VEC3"
        },
        {
            "bufferView" : 34,
            "componentType" : 5126,
            "count" : 2255,
            "type" : "VEC3"
        },
        {
            "bufferView" : 35,
            "componentType" : 5126,
            "count" : 2255,
            "type" : "VEC2"
        },
        {
            "bufferView" : 36,
            "componentType" : 5123,
            "count" : 3498,
            "type" : "SCALAR"
        }
    ],
    "bufferViews" : [
        {
            "buffer" : 0,
            "byteLength" : 1728,
            "byteOffset" : 0,
            "target" : 34962
        },
        {
            "buffer" : 0,
            "byteLength" : 1728,
            "byteOffset" : 1728,
            "target" : 34962
        },
        {
            "buffer" : 0,
            "byteLength" : 1152,
            "byteOffset" : 3456,
            "target" : 34962
        },
        {
            "buffer" : 0,
            "byteLength" : 432,
            "byteOffset" : 4608,
            "target" : 34963
        },
        {
            "buffer" : 0,
            "byteLength" : 1728,
            "byteOffset" : 5040,
            "target" : 34962
        },
        {
            "buffer" : 0,
            "byteLength" : 1728,
            "byteOffset" : 6768,
            "target" : 34962
        },
        {
            "buffer" : 0,
            "byteLength" : 1152,
            "byteOffset" : 8496,
            "target" : 34962
        },
        {
            "buffer" : 0,
            "byteLength" : 432,
            "byteOffset" : 9648,
            "target" : 34963
        },
        {
            "buffer" : 0,
            "byteLength" : 1728,
            "byteOffset" : 10080,
            "target" : 34962
        },
        {
            "buffer" : 0,
            "byteLength" : 1728,
            "byteOffset" : 11808,
            "target" : 34962
        },
        {
            "buffer" : 0,
            "byteLength" : 1152,
            "byteOffset" : 13536,
            "target" : 34962
        },
        {
            "buffer" : 0,
            "byteLength" : 432,
            "byteOffset" : 14688,
            "target" : 34963
        },
        {
            "buffer" : 0,
            "byteLength" : 28920,
            "byteOffset" : 15120,
            "target" : 34962
        },
        {
            "buffer" : 0,
            "byteLength" : 28920,
            "byteOffset" : 44040,
            "target" : 34962
        },
        {
            "buffer" : 0,
            "byteLength" : 19280,
            "byteOffset" : 72960,
            "target" : 34962
        },
        {
            "buffer" : 0,
            "byteLength" : 8688,
            "byteOffset" : 92240,
            "target" : 34963
        },
        {
            "buffer" : 0,
            "byteLength" : 36216,
            "byteOffset" : 100928,
            "target" : 34962
        },
        {
            "buffer" : 0,
            "byteLength" : 36216,
            "byteOffset" : 137144,
            "target" : 34962
        },
        {
            "buffer" : 0,
            "byteLength" : 24144,
            "byteOffset" : 173360,
            "target" : 34962
        },
        {
            "buffer" : 0,
            "byteLength" : 11040,
            "byteOffset" : 197504,
            "target" : 34963
        },
        {
            "buffer" : 0,
            "byteLength" : 16584,
            "byteOffset" : 208544,
            "target" : 34962
        },
        {
            "buffer" : 0,
            "byteLength" : 16584,
            "byteOffset" : 225128,
            "target" : 34962
        },
        {
            "buffer" : 0,
            "byteLength" : 11056,
            "byteOffset" : 241712,
            "target" : 34962
        },
        {
            "buffer" : 0,
            "byteLength" : 5040,
            "byteOffset" : 252768,
            "target" : 34963
        },
        {
            "buffer" : 0,
            "byteLength" : 16272,
            "byteOffset" : 257808,
            "target" : 34962
        },
        {
            "buffer" : 0,
            "byteLength" : 16272,
            "byteOffset" : 274080,
            "target" : 34962
        },
        {
            "buffer" : 0,
            "byteLength" : 10848,
            "byteOffset" : 290352,
            "target" : 34962
        },
        {
            "buffer" : 0,
            "byteLength" : 4734,
            "byteOffset" : 301200,
            "target" : 34963
        },
        {
            "buffer" : 0,
            "byteLength" : 994502,
            "byteOffset" : 305936
        },
        {
            "buffer" : 0,
            "byteLength" : 14136,
            "byteOffset" : 1300440,
            "target" : 34962
        },
        {
            "buffer" : 0,
            "byteLength" : 14136,
            "byteOffset" : 1314576,
            "target" : 34962
        },
        {
            "buffer" : 0,
            "byteLength" : 9424,
            "byteOffset" : 1328712,
            "target" : 34962
        },
        {
            "buffer" : 0,
            "byteLength" : 4734,
            "byteOffset" : 1338136,
            "target" : 34963
        },
        {
            "buffer" : 0,
            "byteLength" : 27060,
            "byteOffset" : 1342872,
            "target" : 34962
        },
        {
            "buffer" : 0,
            "byteLength" : 27060,
            "byteOffset" : 1369932,
            "target" : 34962
        },
        {
            "buffer" : 0,
            "byteLength" : 18040,
            "byteOffset" : 1396992,
            "target" : 34962
        },
        {
            "buffer" : 0,
            "byteLength" : 6996,
            "byteOffset" : 1415032,
            "target" : 34963
        },
        {
            "buffer" : 0,
            "byteLength" : 767,
            "byteOffset" : 1422028
        }
    ],
    "samplers" : [
        {
            "magFilter" : 9729,
            "minFilter" : 9987
        }
    ],
    "buffers" : [
        {
            "byteLength" : 1422796,
            "uri" : "data:application/octet-stream;base64,"
        }
    ]
}
